{
  "accessors": [
    {
      "bufferView": 2,
      "componentType": 5126,
      "count": 94,
      "max": [
        434.87442016601562,
        441.58297729492188,
        448.39508056640625
      ],
      "min": [
        -434.87435913085938,
        -441.58297729492188,
        77.862953186035156
      ],
      "type": "VEC3"
    },
    {
      "bufferView": 2,
      "byteOffset": 1128,
      "componentType": 5126,
      "count": 94,
      "max": [
        0.92541664838790894,
        0.93969267606735229,
        -0.34202000498771667
      ],
      "min": [
        -0.92541682720184326,
        -0.93969267606735229,
        -1
      ],
      "type": "VEC3"
    },
    {
      "bufferView": 3,
      "componentType": 5126,
      "count": 94,
      "max": [
        0.99998307228088379,
        1,
        0.086465030908584595,
        -1
      ],
      "min": [
        -0.99818652868270874,
        -1,
        -0.086465053260326385,
        -1
      ],
      "type": "VEC4"
    },
    {
      "bufferView": 1,
      "componentType": 5126,
      "count": 94,
      "max": [
        0.99999982118606567,
        1
      ],
      "min": [
        0,
        0.55555558204650879
      ],
      "type": "VEC2"
    },
    {
      "bufferView": 0,
      "componentType": 5125,
      "count": 378,
      "max": [
        93
      ],
      "min": [
        0
      ],
      "type": "SCALAR"
    },
    {
      "bufferView": 2,
      "byteOffset": 2256,
      "componentType": 5126,
      "count": 18,
      "max": [
        434.87442016601562,
        441.58297729492188,
        77.862953186035156
      ],
      "min": [
        -434.87435913085938,
        -441.58297729492188,
        77.862953186035156
      ],
      "type": "VEC3"
    },
    {
      "bufferView": 2,
      "byteOffset": 2472,
      "componentType": 5126,
      "count": 18,
      "max": [
        0,
        0,
        1
      ],
      "min": [
        0,
        0,
        1
      ],
      "type": "VEC3"
    },
    {
      "bufferView": 3,
      "byteOffset": 1504,
      "componentType": 5126,
      "count": 18,
      "max": [
        -0.17364758253097534,
        -0.98480743169784546,
        0,
        1
      ],
      "min": [
        -0.17365023493766785,
        -0.98480796813964844,
        0,
        1
      ],
      "type": "VEC4"
    },
    {
      "bufferView": 1,
      "byteOffset": 752,
      "componentType": 5126,
      "count": 18,
      "max": [
        0.98432302474975586,
        0.99950003623962402
      ],
      "min": [
        0.00050000002374872565,
        0.00050000002374872565
      ],
      "type": "VEC2"
    },
    {
      "bufferView": 0,
      "byteOffset": 1512,
      "componentType": 5125,
      "count": 48,
      "max": [
        17
      ],
      "min": [
        0
      ],
      "type": "SCALAR"
    },
    {
      "bufferView": 2,
      "byteOffset": 2688,
      "componentType": 5126,
      "count": 4,
      "max": [
        63.838768005371094,
        -362.04864501953125,
        22.596603393554688
      ],
      "min": [
        -63.839103698730469,
        -2329.01904296875,
        22.596597671508789
      ],
      "type": "VEC3"
    },
    {
      "bufferView": 2,
      "byteOffset": 2736,
      "componentType": 5126,
      "count": 4,
      "max": [
        -6.9532516417587808e-16,
        -2.9090654329877452e-09,
        1
      ],
      "min": [
        -6.9532527005499649e-16,
        -2.9090658770769551e-09,
        1
      ],
      "type": "VEC3"
    },
    {
      "bufferView": 3,
      "byteOffset": 1792,
      "componentType": 5126,
      "count": 4,
      "max": [
        3.0770125689271268e-31,
        1,
        2.90906609912156e-09,
        1
      ],
      "min": [
        1.0256707779427522e-31,
        1,
        2.9090654329877452e-09,
        1
      ],
      "type": "VEC4"
    },
    {
      "bufferView": 1,
      "byteOffset": 896,
      "componentType": 5126,
      "count": 4,
      "max": [
        0.99744236469268799,
        0.65435069799423218
      ],
      "min": [
        -0.0015576130244880915,
        0.19185802340507507
      ],
      "type": "VEC2"
    },
    {
      "bufferView": 0,
      "byteOffset": 1704,
      "componentType": 5125,
      "count": 6,
      "max": [
        3
      ],
      "min": [
        0
      ],
      "type": "SCALAR"
    },
    {
      "bufferView": 2,
      "byteOffset": 2784,
      "componentType": 5126,
      "count": 358,
      "max": [
        280.4892578125,
        280.4892578125,
        280.4892578125
      ],
      "min": [
        -280.4892578125,
        -280.4892578125,
        2.117635085596703e-05
      ],
      "type": "VEC3"
    },
    {
      "bufferView": 2,
      "byteOffset": 7080,
      "componentType": 5126,
      "count": 358,
      "max": [
        0.99518477916717529,
        0.99518483877182007,
        1
      ],
      "min": [
        -0.99518477916717529,
        -0.99518483877182007,
        -1
      ],
      "type": "VEC3"
    },
    {
      "bufferView": 3,
      "byteOffset": 1856,
      "componentType": 5126,
      "count": 358,
      "max": [
        0.98530054092407227,
        1,
        0.99518483877182007,
        1
      ],
      "min": [
        -0.98530066013336182,
        -1,
        -0.99518483877182007,
        -1
      ],
      "type": "VEC4"
    },
    {
      "bufferView": 1,
      "byteOffset": 928,
      "componentType": 5126,
      "count": 358,
      "max": [
        0.87582117319107056,
        1.2161202430725098
      ],
      "min": [
        0.17140670120716095,
        0.18995478749275208
      ],
      "type": "VEC2"
    },
    {
      "bufferView": 0,
      "byteOffset": 1728,
      "componentType": 5125,
      "count": 1704,
      "max": [
        357
      ],
      "min": [
        0
      ],
      "type": "SCALAR"
    },
    {
      "bufferView": 2,
      "byteOffset": 11376,
      "componentType": 5126,
      "count": 1466,
      "max": [
        63.063228607177734,
        42.901966094970703,
        349.0048828125
      ],
      "min": [
        -68.540824890136719,
        -42.901950836181641,
        263.71533203125
      ],
      "type": "VEC3"
    },
    {
      "bufferView": 2,
      "byteOffset": 28968,
      "componentType": 5126,
      "count": 1466,
      "max": [
        1,
        0.98495948314666748,
        0.99934887886047363
      ],
      "min": [
        -1,
        -0.98495942354202271,
        -0.99619483947753906
      ],
      "type": "VEC3"
    },
    {
      "bufferView": 3,
      "byteOffset": 7584,
      "componentType": 5126,
      "count": 1466,
      "max": [
        0.99597686529159546,
        1,
        0.99996697902679443,
        1
      ],
      "min": [
        -0.99934887886047363,
        -1,
        -0.99996697902679443,
        -1
      ],
      "type": "VEC4"
    },
    {
      "bufferView": 1,
      "byteOffset": 3792,
      "componentType": 5126,
      "count": 1466,
      "max": [
        1.1200407743453979,
        1.3497501611709595
      ],
      "min": [
        -0.12004078924655914,
        -0.34975019097328186
      ],
      "type": "VEC2"
    },
    {
      "bufferView": 0,
      "byteOffset": 8544,
      "componentType": 5125,
      "count": 4656,
      "max": [
        1465
      ],
      "min": [
        0
      ],
      "type": "SCALAR"
    },
    {
      "bufferView": 2,
      "byteOffset": 46560,
      "componentType": 5126,
      "count": 984,
      "max": [
        -216.52293395996094,
        50.914936065673828,
        8.2645044326782227
      ],
      "min": [
        -272.94329833984375,
        -50.91497802734375,
        -11.753391265869141
      ],
      "type": "VEC3"
    },
    {
      "bufferView": 2,
      "byteOffset": 58368,
      "componentType": 5126,
      "count": 984,
      "max": [
        1,
        1,
        1
      ],
      "min": [
        -0.98480796813964844,
        -1,
        -1
      ],
      "type": "VEC3"
    },
    {
      "bufferView": 3,
      "byteOffset": 31040,
      "componentType": 5126,
      "count": 984,
      "max": [
        1,
        1,
        0.99617308378219604,
        1
      ],
      "min": [
        -1,
        -1,
        -0.99293249845504761,
        -1
      ],
      "type": "VEC4"
    },
    {
      "bufferView": 1,
      "byteOffset": 15520,
      "componentType": 5126,
      "count": 984,
      "max": [
        1.0376654863357544,
        1.044574499130249
      ],
      "min": [
        -0.63060671091079712,
        -0.044574223458766937
      ],
      "type": "VEC2"
    },
    {
      "bufferView": 0,
      "byteOffset": 27168,
      "componentType": 5125,
      "count": 2379,
      "max": [
        983
      ],
      "min": [
        0
      ],
      "type": "SCALAR"
    },
    {
      "bufferView": 2,
      "byteOffset": 70176,
      "componentType": 5126,
      "count": 303,
      "max": [
        293.27786254882812,
        293.28176879882812,
        15.536968231201172
      ],
      "min": [
        -293.27798461914062,
        -270.89608764648438,
        -0.046452522277832031
      ],
      "type": "VEC3"
    },
    {
      "bufferView": 2,
      "byteOffset": 73812,
      "componentType": 5126,
      "count": 303,
      "max": [
        0.92388033866882324,
        0.89183628559112549,
        0.99993234872817993
      ],
      "min": [
        -0.92387998104095459,
        -0.79033684730529785,
        -1.6287650623780792e-06
      ],
      "type": "VEC3"
    },
    {
      "bufferView": 3,
      "byteOffset": 46784,
      "componentType": 5126,
      "count": 303,
      "max": [
        0.38154834508895874,
        0.92114353179931641,
        0.94247865676879883,
        1
      ],
      "min": [
        -0.99999946355819702,
        -0.85882711410522461,
        -0.58922082185745239,
        -1
      ],
      "type": "VEC4"
    },
    {
      "bufferView": 1,
      "byteOffset": 23392,
      "componentType": 5126,
      "count": 303,
      "max": [
        0.99950003623962402,
        1.2160673141479492
      ],
      "min": [
        0.00050000002374872565,
        0.00050000002374872565
      ],
      "type": "VEC2"
    },
    {
      "bufferView": 0,
      "byteOffset": 36684,
      "componentType": 5125,
      "count": 1227,
      "max": [
        302
      ],
      "min": [
        0
      ],
      "type": "SCALAR"
    }
  ],
  "asset": {
    "extras": {
      "author": "Anthony Yanez (https://sketchfab.com/paulyanez)",
      "license": "CC-BY-4.0 (http://creativecommons.org/licenses/by/4.0/)",
      "source": "https://sketchfab.com/models/e903770349644943b400f8b72d2d3958",
      "title": "Patrick's House (Spongebob)"
    },
    "generator": "Sketchfab-3.46.1",
    "version": "2.0"
  },
  "bufferViews": [
    {
      "buffer": 0,
      "byteLength": 41592,
      "byteOffset": 0,
      "name": "floatBufferViews",
      "target": 34963
    },
    {
      "buffer": 0,
      "byteLength": 25816,
      "byteOffset": 41592,
      "byteStride": 8,
      "name": "floatBufferViews",
      "target": 34962
    },
    {
      "buffer": 0,
      "byteLength": 77448,
      "byteOffset": 67408,
      "byteStride": 12,
      "name": "floatBufferViews",
      "target": 34962
    },
    {
      "buffer": 0,
      "byteLength": 51632,
      "byteOffset": 144856,
      "byteStride": 16,
      "name": "floatBufferViews",
      "target": 34962
    }
  ],
  "buffers": [
    {
      "byteLength": 196488,
      "uri": "scene.bin"
    }
  ],
  "images": [
    {
      "uri": "textures/07_-_Default_baseColor.jpeg"
    },
    {
      "uri": "textures/03_-_Default_baseColor.png"
    },
    {
      "uri": "textures/03_-_Default_normal.png"
    },
    {
      "uri": "textures/02_-_Default_baseColor.jpeg"
    },
    {
      "uri": "textures/02_-_Default_normal.png"
    },
    {
      "uri": "textures/19_-_Default_baseColor.jpeg"
    },
    {
      "uri": "textures/08_-_Default_baseColor.jpeg"
    }
  ],
  "materials": [
    {
      "doubleSided": true,
      "emissiveFactor": [
        0,
        0,
        0
      ],
      "name": "07_-_Default",
      "pbrMetallicRoughness": {
        "baseColorFactor": [
          0.91634908540000004,
          0.91634908540000004,
          0.91634908540000004,
          1
        ],
        "baseColorTexture": {
          "index": 0,
          "texCoord": 0
        },
        "metallicFactor": 0,
        "roughnessFactor": 0.12633384150000004
      }
    },
    {
      "doubleSided": true,
      "emissiveFactor": [
        0,
        0,
        0
      ],
      "name": "03_-_Default",
      "normalTexture": {
        "index": 2,
        "scale": 1,
        "texCoord": 0
      },
      "pbrMetallicRoughness": {
        "baseColorFactor": [
          1,
          1,
          1,
          1
        ],
        "baseColorTexture": {
          "index": 1,
          "texCoord": 0
        },
        "metallicFactor": 0,
        "roughnessFactor": 0.89297135959999996
      }
    },
    {
      "doubleSided": true,
      "emissiveFactor": [
        0,
        0,
        0
      ],
      "name": "19_-_Default",
      "pbrMetallicRoughness": {
        "baseColorFactor": [
          1,
          1,
          1,
          1
        ],
        "baseColorTexture": {
          "index": 5,
          "texCoord": 0
        },
        "metallicFactor": 0,
        "roughnessFactor": 0.89297135959999996
      }
    },
    {
      "doubleSided": true,
      "emissiveFactor": [
        0,
        0,
        0
      ],
      "name": "02_-_Default",
      "normalTexture": {
        "index": 4,
        "scale": 1,
        "texCoord": 0
      },
      "pbrMetallicRoughness": {
        "baseColorFactor": [
          1,
          1,
          1,
          1
        ],
        "baseColorTexture": {
          "index": 3,
          "texCoord": 0
        },
        "metallicFactor": 0,
        "roughnessFactor": 0.89297135959999996
      }
    },
    {
      "doubleSided": true,
      "emissiveFactor": [
        0,
        0,
        0
      ],
      "name": "08_-_Default",
      "pbrMetallicRoughness": {
        "baseColorFactor": [
          1,
          1,
          1,
          1
        ],
        "baseColorTexture": {
          "index": 6,
          "texCoord": 0
        },
        "metallicFactor": 0,
        "roughnessFactor": 0.89297135959999996
      }
    },
    {
      "doubleSided": true,
      "emissiveFactor": [
        0,
        0,
        0
      ],
      "name": "09_-_Default",
      "pbrMetallicRoughness": {
        "baseColorFactor": [
          0.66274500000000003,
          0.45097999999999999,
          0,
          1
        ],
        "metallicFactor": 0,
        "roughnessFactor": 0
      }
    }
  ],
  "meshes": [
    {
      "name": "Skybox_07 - Default_0",
      "primitives": [
        {
          "attributes": {
            "NORMAL": 1,
            "POSITION": 0,
            "TANGENT": 2,
            "TEXCOORD_0": 3
          },
          "indices": 4,
          "material": 0,
          "mode": 4
        }
      ]
    },
    {
      "name": "Sand_03 - Default_0",
      "primitives": [
        {
          "attributes": {
            "NORMAL": 6,
            "POSITION": 5,
            "TANGENT": 7,
            "TEXCOORD_0": 8
          },
          "indices": 9,
          "material": 1,
          "mode": 4
        }
      ]
    },
    {
      "name": "Road_19 - Default_0",
      "primitives": [
        {
          "attributes": {
            "NORMAL": 11,
            "POSITION": 10,
            "TANGENT": 12,
            "TEXCOORD_0": 13
          },
          "indices": 14,
          "material": 2,
          "mode": 4
        }
      ]
    },
    {
      "name": "Patrick's House_02 - Default_0",
      "primitives": [
        {
          "attributes": {
            "NORMAL": 16,
            "POSITION": 15,
            "TANGENT": 17,
            "TEXCOORD_0": 18
          },
          "indices": 19,
          "material": 3,
          "mode": 4
        }
      ]
    },
    {
      "name": "Patrick's House_08 - Default_0",
      "primitives": [
        {
          "attributes": {
            "NORMAL": 21,
            "POSITION": 20,
            "TANGENT": 22,
            "TEXCOORD_0": 23
          },
          "indices": 24,
          "material": 4,
          "mode": 4
        }
      ]
    },
    {
      "name": "Patrick's House_09 - Default_0",
      "primitives": [
        {
          "attributes": {
            "NORMAL": 26,
            "POSITION": 25,
            "TANGENT": 27,
            "TEXCOORD_0": 28
          },
          "indices": 29,
          "material": 5,
          "mode": 4
        }
      ]
    },
    {
      "name": "Patrick's House_03 - Default_0",
      "primitives": [
        {
          "attributes": {
            "NORMAL": 31,
            "POSITION": 30,
            "TANGENT": 32,
            "TEXCOORD_0": 33
          },
          "indices": 34,
          "material": 1,
          "mode": 4
        }
      ]
    }
  ],
  "nodes": [
    {
      "children": [
        1
      ],
      "name": "RootNode (gltf orientation matrix)",
      "rotation": [
        -0.70710678118654746,
        -0,
        -0,
        0.70710678118654757
      ]
    },
    {
      "children": [
        2
      ],
      "name": "RootNode (model correction matrix)"
    },
    {
      "children": [
        3
      ],
      "matrix": [
        1,
        0,
        0,
        0,
        0,
        0,
        1,
        0,
        0,
        -1,
        0,
        0,
        0,
        0,
        0,
        1
      ],
      "name": "Patrick's House.FBX"
    },
    {
      "children": [
        4,
        6,
        8,
        10
      ],
      "name": "RootNode"
    },
    {
      "children": [
        5
      ],
      "matrix": [
        -4.6952890441172839,
        -5.751708406903362e-16,
        2.1894495063516777,
        0,
        2.1894495063516777,
        0,
        4.695289044117283,
        0,
        -7.5140139226207293e-16,
        6.7680220603942889,
        0,
        0,
        9.2497940063476562,
        -278.03143310546875,
        7.4177579879760742,
        1
      ],
      "name": "Skybox"
    },
    {
      "mesh": 0,
      "name": "Skybox_07 - Default_0"
    },
    {
      "children": [
        7
      ],
      "matrix": [
        5.1786832809448242,
        0,
        0,
        0,
        0,
        1.1498986831492584e-15,
        -5.1786832809448242,
        0,
        0,
        6.7654142379760742,
        1.5022237316255791e-15,
        0,
        9.2494878768920898,
        -248.62200927734375,
        -61.957256317138672,
        1
      ],
      "name": "Sand"
    },
    {
      "mesh": 1,
      "name": "Sand_03 - Default_0"
    },
    {
      "children": [
        9
      ],
      "matrix": [
        2.775855541229248,
        0,
        0,
        0,
        0,
        2.4366610028554259e-16,
        -1.0973745584487915,
        0,
        0,
        2.1965265274047852,
        4.8772686498494647e-16,
        0,
        9.2501773834228516,
        229.04364013671875,
        -309.2581787109375,
        1
      ],
      "name": "Road"
    },
    {
      "mesh": 2,
      "name": "Road_19 - Default_0"
    },
    {
      "children": [
        11
      ],
      "matrix": [
        1.5708249807357788,
        0,
        0,
        0,
        0,
        3.4879321225384592e-16,
        -1.5708249807357788,
        0,
        0,
        1.5708249807357788,
        3.4879321225384592e-16,
        0,
        -433.30523681640625,
        277.61618041992188,
        -53.562625885009766,
        1
      ],
      "name": "Patrick's House"
    },
    {
      "children": [
        12,
        13,
        14,
        15
      ],
      "matrix": [
        1,
        0,
        -0,
        0,
        0,
        1,
        0,
        0,
        0,
        0,
        1,
        0,
        281.73370361328125,
        0,
        0,
        1
      ],
      "name": ""
    },
    {
      "mesh": 3,
      "name": "Patrick's House_02 - Default_0"
    },
    {
      "mesh": 4,
      "name": "Patrick's House_08 - Default_0"
    },
    {
      "mesh": 5,
      "name": "Patrick's House_09 - Default_0"
    },
    {
      "mesh": 6,
      "name": "Patrick's House_03 - Default_0"
    }
  ],
  "samplers": [
    {
      "magFilter": 9729,
      "minFilter": 9987,
      "wrapS": 10497,
      "wrapT": 10497
    }
  ],
  "scene": 0,
  "scenes": [
    {
      "name": "OSG_Scene",
      "nodes": [
        0
      ]
    }
  ],
  "textures": [
    {
      "sampler": 0,
      "source": 0
    },
    {
      "sampler": 0,
      "source": 1
    },
    {
      "sampler": 0,
      "source": 2
    },
    {
      "sampler": 0,
      "source": 3
    },
    {
      "sampler": 0,
      "source": 4
    },
    {
      "sampler": 0,
      "source": 5
    },
    {
      "sampler": 0,
      "source": 6
    }
  ]
}

