{
  "accessors": [
    {
      "bufferView": 2,
      "componentType": 5126,
      "count": 2065,
      "max": [
        114.01914215087891,
        72.197883605957031,
        192.00961303710938
      ],
      "min": [
        -105.17947387695312,
        -72.1978759765625,
        -115.08847808837891
      ],
      "type": "VEC3"
    },
    {
      "bufferView": 2,
      "byteOffset": 24780,
      "componentType": 5126,
      "count": 2065,
      "max": [
        0.99999362230300903,
        0.9999355673789978,
        0.99865144491195679
      ],
      "min": [
        -0.99987924098968506,
        -0.9999355673789978,
        -1
      ],
      "type": "VEC3"
    },
    {
      "bufferView": 3,
      "componentType": 5126,
      "count": 2065,
      "max": [
        1,
        1,
        0.86689496040344238,
        1
      ],
      "min": [
        -1,
        -1,
        -0.999786376953125,
        -1
      ],
      "type": "VEC4"
    },
    {
      "bufferView": 1,
      "componentType": 5126,
      "count": 2065,
      "max": [
        1.0679110288619995,
        1
      ],
      "min": [
        0,
        0
      ],
      "type": "VEC2"
    },
    {
      "bufferView": 0,
      "componentType": 5125,
      "count": 7278,
      "max": [
        2064
      ],
      "min": [
        0
      ],
      "type": "SCALAR"
    },
    {
      "bufferView": 2,
      "byteOffset": 49560,
      "componentType": 5126,
      "count": 328,
      "max": [
        56.055038452148438,
        29.641998291015625,
        -39.040290832519531
      ],
      "min": [
        -68.232566833496094,
        -29.641992568969727,
        -85.639312744140625
      ],
      "type": "VEC3"
    },
    {
      "bufferView": 2,
      "byteOffset": 53496,
      "componentType": 5126,
      "count": 328,
      "max": [
        0.99983716011047363,
        0.98312342166900635,
        0.1974988579750061
      ],
      "min": [
        -0.99983721971511841,
        -0.9831233024597168,
        -0.91653692722320557
      ],
      "type": "VEC3"
    },
    {
      "bufferView": 3,
      "byteOffset": 33040,
      "componentType": 5126,
      "count": 328,
      "max": [
        0.98381900787353516,
        0.99999964237213135,
        0.99935156106948853,
        1
      ],
      "min": [
        -0.98381894826889038,
        -0.99999964237213135,
        -0.99935144186019897,
        -1
      ],
      "type": "VEC4"
    },
    {
      "bufferView": 1,
      "byteOffset": 16520,
      "componentType": 5126,
      "count": 328,
      "max": [
        0.97222232818603516,
        0.93030333518981934
      ],
      "min": [
        -0.027777671813964844,
        0
      ],
      "type": "VEC2"
    },
    {
      "bufferView": 0,
      "byteOffset": 29112,
      "componentType": 5125,
      "count": 1080,
      "max": [
        327
      ],
      "min": [
        0
      ],
      "type": "SCALAR"
    },
    {
      "bufferView": 2,
      "byteOffset": 57432,
      "componentType": 5126,
      "count": 822,
      "max": [
        20.164985656738281,
        -6.8243703842163086,
        123.86959838867188
      ],
      "min": [
        -30.656074523925781,
        -44.744651794433594,
        83.791717529296875
      ],
      "type": "VEC3"
    },
    {
      "bufferView": 2,
      "byteOffset": 67296,
      "componentType": 5126,
      "count": 822,
      "max": [
        0.99900245666503906,
        0.78529733419418335,
        0.99301785230636597
      ],
      "min": [
        -0.99881148338317871,
        -0.99959689378738403,
        -0.99301791191101074
      ],
      "type": "VEC3"
    },
    {
      "bufferView": 3,
      "byteOffset": 38288,
      "componentType": 5126,
      "count": 822,
      "max": [
        0.97830885648727417,
        0.9985230565071106,
        0.78570371866226196,
        1
      ],
      "min": [
        -0.45011910796165466,
        -0.93332910537719727,
        -0.90202909708023071,
        1
      ],
      "type": "VEC4"
    },
    {
      "bufferView": 1,
      "byteOffset": 19144,
      "componentType": 5126,
      "count": 822,
      "max": [
        0.99949979782104492,
        0.96766829490661621
      ],
      "min": [
        0.00050000002374872565,
        0.00050000002374872565
      ],
      "type": "VEC2"
    },
    {
      "bufferView": 0,
      "byteOffset": 33432,
      "componentType": 5125,
      "count": 3648,
      "max": [
        821
      ],
      "min": [
        0
      ],
      "type": "SCALAR"
    },
    {
      "bufferView": 2,
      "byteOffset": 77160,
      "componentType": 5126,
      "count": 128,
      "max": [
        21.763885498046875,
        -7.0137233734130859,
        140.55055236816406
      ],
      "min": [
        -13.809974670410156,
        -24.980367660522461,
        128.44560241699219
      ],
      "type": "VEC3"
    },
    {
      "bufferView": 2,
      "byteOffset": 78696,
      "componentType": 5126,
      "count": 128,
      "max": [
        0.86602520942687988,
        0.46316984295845032,
        0.9920305609703064
      ],
      "min": [
        -0.86602526903152466,
        -1,
        -0.9920305609703064
      ],
      "type": "VEC3"
    },
    {
      "bufferView": 3,
      "byteOffset": 51440,
      "componentType": 5126,
      "count": 128,
      "max": [
        0.9249998927116394,
        0.51620477437973022,
        0.96500664949417114,
        1
      ],
      "min": [
        -0.9249998927116394,
        -0.51620477437973022,
        -0.96500694751739502,
        -1
      ],
      "type": "VEC4"
    },
    {
      "bufferView": 1,
      "byteOffset": 25720,
      "componentType": 5126,
      "count": 128,
      "max": [
        1,
        1
      ],
      "min": [
        0,
        0
      ],
      "type": "VEC2"
    },
    {
      "bufferView": 0,
      "byteOffset": 48024,
      "componentType": 5125,
      "count": 264,
      "max": [
        127
      ],
      "min": [
        0
      ],
      "type": "SCALAR"
    },
    {
      "bufferView": 2,
      "byteOffset": 80232,
      "componentType": 5126,
      "count": 168,
      "max": [
        11.665362358093262,
        -31.041229248046875,
        57.208358764648438
      ],
      "min": [
        -23.597301483154297,
        -54.786033630371094,
        42.152431488037109
      ],
      "type": "VEC3"
    },
    {
      "bufferView": 2,
      "byteOffset": 82248,
      "componentType": 5126,
      "count": 168,
      "max": [
        0.89654082059860229,
        0.088133811950683594,
        0.99979907274246216
      ],
      "min": [
        -0.99925488233566284,
        -0.9918522834777832,
        0.0089779673144221306
      ],
      "type": "VEC3"
    },
    {
      "bufferView": 3,
      "byteOffset": 53488,
      "componentType": 5126,
      "count": 168,
      "max": [
        -0.038595791906118393,
        0.14131642878055573,
        0.89654111862182617,
        1
      ],
      "min": [
        -0.99984151124954224,
        -0.18649636209011078,
        -0.99925500154495239,
        1
      ],
      "type": "VEC4"
    },
    {
      "bufferView": 1,
      "byteOffset": 26744,
      "componentType": 5126,
      "count": 168,
      "max": [
        1.0000002384185791,
        1
      ],
      "min": [
        0,
        0.43750005960464478
      ],
      "type": "VEC2"
    },
    {
      "bufferView": 0,
      "byteOffset": 49080,
      "componentType": 5125,
      "count": 765,
      "max": [
        167
      ],
      "min": [
        0
      ],
      "type": "SCALAR"
    },
    {
      "bufferView": 2,
      "byteOffset": 84264,
      "componentType": 5126,
      "count": 1296,
      "max": [
        73.989410400390625,
        73.989387512207031,
        -6.1510848999023438
      ],
      "min": [
        -73.989410400390625,
        -73.989364624023438,
        -74.084197998046875
      ],
      "type": "VEC3"
    },
    {
      "bufferView": 2,
      "byteOffset": 99816,
      "componentType": 5126,
      "count": 1296,
      "max": [
        0.99517214298248291,
        0.99493134021759033,
        0.8519473671913147
      ],
      "min": [
        -0.99517232179641724,
        -0.99493122100830078,
        -1
      ],
      "type": "VEC3"
    },
    {
      "bufferView": 3,
      "byteOffset": 56176,
      "componentType": 5126,
      "count": 1296,
      "max": [
        0.99999994039535522,
        1,
        0.98372584581375122,
        1
      ],
      "min": [
        -0.99965345859527588,
        -1,
        -0.99502366781234741,
        1
      ],
      "type": "VEC4"
    },
    {
      "bufferView": 1,
      "byteOffset": 28088,
      "componentType": 5126,
      "count": 1296,
      "max": [
        1.0041154623031616,
        0.95867288112640381
      ],
      "min": [
        0.004115106537938118,
        0.00049996160669252276
      ],
      "type": "VEC2"
    },
    {
      "bufferView": 0,
      "byteOffset": 52140,
      "componentType": 5125,
      "count": 4128,
      "max": [
        1295
      ],
      "min": [
        0
      ],
      "type": "SCALAR"
    },
    {
      "bufferView": 2,
      "byteOffset": 115368,
      "componentType": 5126,
      "count": 74,
      "max": [
        23.846328735351562,
        -32.252277374267578,
        79.115142822265625
      ],
      "min": [
        -30.96380615234375,
        -55.380424499511719,
        43.243690490722656
      ],
      "type": "VEC3"
    },
    {
      "bufferView": 2,
      "byteOffset": 116256,
      "componentType": 5126,
      "count": 74,
      "max": [
        0.97852969169616699,
        0.10695643723011017,
        0.99517804384231567
      ],
      "min": [
        -0.99227100610733032,
        -0.99966013431549072,
        -0.99692302942276001
      ],
      "type": "VEC3"
    },
    {
      "bufferView": 3,
      "byteOffset": 76912,
      "componentType": 5126,
      "count": 74,
      "max": [
        0,
        0,
        0,
        1
      ],
      "min": [
        0,
        0,
        0,
        1
      ],
      "type": "VEC4"
    },
    {
      "bufferView": 1,
      "byteOffset": 38456,
      "componentType": 5126,
      "count": 74,
      "max": [
        1,
        1
      ],
      "min": [
        1,
        1
      ],
      "type": "VEC2"
    },
    {
      "bufferView": 0,
      "byteOffset": 68652,
      "componentType": 5125,
      "count": 396,
      "max": [
        73
      ],
      "min": [
        0
      ],
      "type": "SCALAR"
    }
  ],
  "asset": {
    "extras": {
      "author": "Anthony Yanez (https://sketchfab.com/paulyanez)",
      "license": "CC-BY-4.0 (http://creativecommons.org/licenses/by/4.0/)",
      "source": "https://sketchfab.com/models/02de99ecb51c486891f6438149e7e3cd",
      "title": "Patrick Star (Spongebob)"
    },
    "generator": "Sketchfab-3.53.2",
    "version": "2.0"
  },
  "bufferViews": [
    {
      "buffer": 0,
      "byteLength": 70236,
      "byteOffset": 0,
      "name": "floatBufferViews",
      "target": 34963
    },
    {
      "buffer": 0,
      "byteLength": 39048,
      "byteOffset": 70236,
      "byteStride": 8,
      "name": "floatBufferViews",
      "target": 34962
    },
    {
      "buffer": 0,
      "byteLength": 117144,
      "byteOffset": 109284,
      "byteStride": 12,
      "name": "floatBufferViews",
      "target": 34962
    },
    {
      "buffer": 0,
      "byteLength": 78096,
      "byteOffset": 226428,
      "byteStride": 16,
      "name": "floatBufferViews",
      "target": 34962
    }
  ],
  "buffers": [
    {
      "byteLength": 304524,
      "uri": "scene.bin"
    }
  ],
  "images": [
    {
      "uri": "textures/02_-_Default_baseColor.png"
    },
    {
      "uri": "textures/03_-_Default_baseColor.png"
    },
    {
      "uri": "textures/08_-_Default_baseColor.png"
    }
  ],
  "materials": [
    {
      "doubleSided": true,
      "emissiveFactor": [
        0,
        0,
        0
      ],
      "name": "02_-_Default",
      "pbrMetallicRoughness": {
        "baseColorFactor": [
          1,
          1,
          1,
          1
        ],
        "baseColorTexture": {
          "index": 0,
          "texCoord": 0
        },
        "metallicFactor": 1,
        "roughnessFactor": 0.89297135959999996
      }
    },
    {
      "doubleSided": true,
      "emissiveFactor": [
        0,
        0,
        0
      ],
      "name": "09_-_Default",
      "pbrMetallicRoughness": {
        "baseColorFactor": [
          0.41176499999999999,
          0.56078399999999995,
          0.0313726,
          1
        ],
        "metallicFactor": 1,
        "roughnessFactor": 0.89297135959999996
      }
    },
    {
      "doubleSided": true,
      "emissiveFactor": [
        0,
        0,
        0
      ],
      "name": "03_-_Default",
      "pbrMetallicRoughness": {
        "baseColorFactor": [
          1,
          1,
          1,
          1
        ],
        "baseColorTexture": {
          "index": 1,
          "texCoord": 0
        },
        "metallicFactor": 1,
        "roughnessFactor": 0.68730945119999998
      }
    },
    {
      "doubleSided": true,
      "emissiveFactor": [
        0,
        0,
        0
      ],
      "name": "07_-_Default",
      "pbrMetallicRoughness": {
        "baseColorFactor": [
          0,
          0,
          0,
          1
        ],
        "metallicFactor": 1,
        "roughnessFactor": 0.89297135959999996
      }
    },
    {
      "doubleSided": true,
      "emissiveFactor": [
        0,
        0,
        0
      ],
      "name": "14_-_Default",
      "pbrMetallicRoughness": {
        "baseColorFactor": [
          1,
          0.21176500000000001,
          0.26666699999999999,
          1
        ],
        "metallicFactor": 1,
        "roughnessFactor": 0.89297135959999996
      }
    },
    {
      "doubleSided": true,
      "emissiveFactor": [
        0,
        0,
        0
      ],
      "name": "08_-_Default",
      "pbrMetallicRoughness": {
        "baseColorFactor": [
          1,
          1,
          1,
          1
        ],
        "baseColorTexture": {
          "index": 2,
          "texCoord": 0
        },
        "metallicFactor": 1,
        "roughnessFactor": 0.49828506100000003
      }
    },
    {
      "doubleSided": true,
      "emissiveFactor": [
        0,
        0,
        0
      ],
      "name": "13_-_Default",
      "pbrMetallicRoughness": {
        "baseColorFactor": [
          0.34117599999999998,
          0,
          0,
          1
        ],
        "metallicFactor": 1,
        "roughnessFactor": 0.89297135959999996
      }
    }
  ],
  "meshes": [
    {
      "name": "Patrick Star_02 - Default_0",
      "primitives": [
        {
          "attributes": {
            "NORMAL": 1,
            "POSITION": 0,
            "TANGENT": 2,
            "TEXCOORD_0": 3
          },
          "indices": 4,
          "material": 0,
          "mode": 4
        }
      ]
    },
    {
      "name": "Patrick Star_09 - Default_0",
      "primitives": [
        {
          "attributes": {
            "NORMAL": 6,
            "POSITION": 5,
            "TANGENT": 7,
            "TEXCOORD_0": 8
          },
          "indices": 9,
          "material": 1,
          "mode": 4
        }
      ]
    },
    {
      "name": "Patrick Star_03 - Default_0",
      "primitives": [
        {
          "attributes": {
            "NORMAL": 11,
            "POSITION": 10,
            "TANGENT": 12,
            "TEXCOORD_0": 13
          },
          "indices": 14,
          "material": 2,
          "mode": 4
        }
      ]
    },
    {
      "name": "Patrick Star_07 - Default_0",
      "primitives": [
        {
          "attributes": {
            "NORMAL": 16,
            "POSITION": 15,
            "TANGENT": 17,
            "TEXCOORD_0": 18
          },
          "indices": 19,
          "material": 3,
          "mode": 4
        }
      ]
    },
    {
      "name": "Patrick Star_14 - Default_0",
      "primitives": [
        {
          "attributes": {
            "NORMAL": 21,
            "POSITION": 20,
            "TANGENT": 22,
            "TEXCOORD_0": 23
          },
          "indices": 24,
          "material": 4,
          "mode": 4
        }
      ]
    },
    {
      "name": "Patrick Star_08 - Default_0",
      "primitives": [
        {
          "attributes": {
            "NORMAL": 26,
            "POSITION": 25,
            "TANGENT": 27,
            "TEXCOORD_0": 28
          },
          "indices": 29,
          "material": 5,
          "mode": 4
        }
      ]
    },
    {
      "name": "Patrick Star_13 - Default_0",
      "primitives": [
        {
          "attributes": {
            "NORMAL": 31,
            "POSITION": 30,
            "TANGENT": 32,
            "TEXCOORD_0": 33
          },
          "indices": 34,
          "material": 6,
          "mode": 4
        }
      ]
    }
  ],
  "nodes": [
    {
      "children": [
        1
      ],
      "name": "RootNode (gltf orientation matrix)",
      "rotation": [
        -0.70710678118654746,
        -0,
        -0,
        0.70710678118654757
      ]
    },
    {
      "children": [
        2
      ],
      "name": "RootNode (model correction matrix)"
    },
    {
      "children": [
        3
      ],
      "matrix": [
        1,
        0,
        0,
        0,
        0,
        0,
        1,
        0,
        0,
        -1,
        0,
        0,
        0,
        0,
        0,
        1
      ],
      "name": "Patrick Star.FBX"
    },
    {
      "children": [
        4
      ],
      "name": "RootNode"
    },
    {
      "children": [
        5,
        6,
        7,
        8,
        9,
        10,
        11
      ],
      "matrix": [
        0.89151030778884888,
        0,
        0,
        0,
        0,
        1.8756538765321617e-16,
        -0.84471940994262695,
        0,
        0,
        0.89151030778884888,
        1.9795505407956801e-16,
        0,
        0,
        0,
        0,
        1
      ],
      "name": "Patrick Star"
    },
    {
      "mesh": 0,
      "name": "Patrick Star_02 - Default_0"
    },
    {
      "mesh": 1,
      "name": "Patrick Star_09 - Default_0"
    },
    {
      "mesh": 2,
      "name": "Patrick Star_03 - Default_0"
    },
    {
      "mesh": 3,
      "name": "Patrick Star_07 - Default_0"
    },
    {
      "mesh": 4,
      "name": "Patrick Star_14 - Default_0"
    },
    {
      "mesh": 5,
      "name": "Patrick Star_08 - Default_0"
    },
    {
      "mesh": 6,
      "name": "Patrick Star_13 - Default_0"
    }
  ],
  "samplers": [
    {
      "magFilter": 9729,
      "minFilter": 9987,
      "wrapS": 10497,
      "wrapT": 10497
    }
  ],
  "scene": 0,
  "scenes": [
    {
      "name": "OSG_Scene",
      "nodes": [
        0
      ]
    }
  ],
  "textures": [
    {
      "sampler": 0,
      "source": 0
    },
    {
      "sampler": 0,
      "source": 1
    },
    {
      "sampler": 0,
      "source": 2
    }
  ]
}

