{
  "accessors": [
    {
      "bufferView": 2,
      "componentType": 5126,
      "count": 1334,
      "max": [
        56.787513732910156,
        61.599678039550781,
        80.329833984375
      ],
      "min": [
        -56.787513732910156,
        -38.400321960449219,
        -203.31968688964844
      ],
      "type": "VEC3"
    },
    {
      "bufferView": 2,
      "byteOffset": 16008,
      "componentType": 5126,
      "count": 1334,
      "max": [
        1,
        1,
        1
      ],
      "min": [
        -1,
        -1,
        -1
      ],
      "type": "VEC3"
    },
    {
      "bufferView": 3,
      "componentType": 5126,
      "count": 1334,
      "max": [
        1,
        1,
        1,
        1
      ],
      "min": [
        -1,
        -1,
        -1,
        -1
      ],
      "type": "VEC4"
    },
    {
      "bufferView": 1,
      "componentType": 5126,
      "count": 1334,
      "max": [
        1.0277777910232544,
        1
      ],
      "min": [
        -0.027777671813964844,
        -5.9604644775390625e-08
      ],
      "type": "VEC2"
    },
    {
      "bufferView": 0,
      "componentType": 5125,
      "count": 3726,
      "max": [
        1333
      ],
      "min": [
        0
      ],
      "type": "SCALAR"
    },
    {
      "bufferView": 2,
      "byteOffset": 32016,
      "componentType": 5126,
      "count": 8,
      "max": [
        48.269386291503906,
        -37.400321960449219,
        73.491676330566406
      ],
      "min": [
        -48.269386291503906,
        -37.400321960449219,
        6.8381462097167969
      ],
      "type": "VEC3"
    },
    {
      "bufferView": 2,
      "byteOffset": 32112,
      "componentType": 5126,
      "count": 8,
      "max": [
        0,
        -1,
        0
      ],
      "min": [
        0,
        -1,
        0
      ],
      "type": "VEC3"
    },
    {
      "bufferView": 3,
      "byteOffset": 21344,
      "componentType": 5126,
      "count": 8,
      "max": [
        1,
        0,
        0.11428789049386978,
        1
      ],
      "min": [
        0.99344772100448608,
        0,
        -0.028406530618667603,
        1
      ],
      "type": "VEC4"
    },
    {
      "bufferView": 1,
      "byteOffset": 10672,
      "componentType": 5126,
      "count": 8,
      "max": [
        0.99950003623962402,
        0.99950003623962402
      ],
      "min": [
        0.00050000002374872565,
        0.00050000002374872565
      ],
      "type": "VEC2"
    },
    {
      "bufferView": 0,
      "byteOffset": 14904,
      "componentType": 5125,
      "count": 18,
      "max": [
        7
      ],
      "min": [
        0
      ],
      "type": "SCALAR"
    },
    {
      "bufferView": 2,
      "byteOffset": 32208,
      "componentType": 5126,
      "count": 72,
      "max": [
        55.494544982910156,
        -37.361114501953125,
        78.951133728027344
      ],
      "min": [
        -55.635795593261719,
        -37.361114501953125,
        1.3786859512329102
      ],
      "type": "VEC3"
    },
    {
      "bufferView": 2,
      "byteOffset": 33072,
      "componentType": 5126,
      "count": 72,
      "max": [
        0,
        -1,
        0
      ],
      "min": [
        0,
        -1,
        0
      ],
      "type": "VEC3"
    },
    {
      "bufferView": 3,
      "byteOffset": 21472,
      "componentType": 5126,
      "count": 72,
      "max": [
        1.1751198144338559e-05,
        0,
        1,
        1
      ],
      "min": [
        -0.96592807769775391,
        0,
        -1,
        -1
      ],
      "type": "VEC4"
    },
    {
      "bufferView": 1,
      "byteOffset": 10736,
      "componentType": 5126,
      "count": 72,
      "max": [
        0.99240493774414062,
        1.0000003576278687
      ],
      "min": [
        0.007596433162689209,
        -5.9604644775390625e-07
      ],
      "type": "VEC2"
    },
    {
      "bufferView": 0,
      "byteOffset": 14976,
      "componentType": 5125,
      "count": 192,
      "max": [
        71
      ],
      "min": [
        0
      ],
      "type": "SCALAR"
    },
    {
      "bufferView": 2,
      "byteOffset": 33936,
      "componentType": 5126,
      "count": 1768,
      "max": [
        49.479484558105469,
        31.815813064575195,
        -196.99310302734375
      ],
      "min": [
        -49.479484558105469,
        -31.815816879272461,
        -204.319580078125
      ],
      "type": "VEC3"
    },
    {
      "bufferView": 2,
      "byteOffset": 55152,
      "componentType": 5126,
      "count": 1768,
      "max": [
        0.95011812448501587,
        1,
        1
      ],
      "min": [
        -0.95011812448501587,
        -1,
        -1
      ],
      "type": "VEC3"
    },
    {
      "bufferView": 3,
      "byteOffset": 22624,
      "componentType": 5126,
      "count": 1768,
      "max": [
        0.99796551465988159,
        0.97050929069519043,
        0.95142108201980591,
        1
      ],
      "min": [
        -0.99796551465988159,
        -0.97050929069519043,
        -0.99999982118606567,
        -1
      ],
      "type": "VEC4"
    },
    {
      "bufferView": 1,
      "byteOffset": 11312,
      "componentType": 5126,
      "count": 1768,
      "max": [
        1.0655238628387451,
        1.0720090866088867
      ],
      "min": [
        -0.065523870289325714,
        -0.072009190917015076
      ],
      "type": "VEC2"
    },
    {
      "bufferView": 0,
      "byteOffset": 15744,
      "componentType": 5125,
      "count": 2592,
      "max": [
        1767
      ],
      "min": [
        0
      ],
      "type": "SCALAR"
    }
  ],
  "asset": {
    "extras": {
      "author": "Anthony Yanez (https://sketchfab.com/paulyanez)",
      "license": "CC-BY-4.0 (http://creativecommons.org/licenses/by/4.0/)",
      "source": "https://sketchfab.com/models/c2483fddad0541e1ab3b0e91fb892c18",
      "title": "Karen (Spongebob)"
    },
    "generator": "Sketchfab-3.54.8-rc1",
    "version": "2.0"
  },
  "bufferViews": [
    {
      "buffer": 0,
      "byteLength": 26112,
      "byteOffset": 0,
      "name": "floatBufferViews",
      "target": 34963
    },
    {
      "buffer": 0,
      "byteLength": 25456,
      "byteOffset": 26112,
      "byteStride": 8,
      "name": "floatBufferViews",
      "target": 34962
    },
    {
      "buffer": 0,
      "byteLength": 76368,
      "byteOffset": 51568,
      "byteStride": 12,
      "name": "floatBufferViews",
      "target": 34962
    },
    {
      "buffer": 0,
      "byteLength": 50912,
      "byteOffset": 127936,
      "byteStride": 16,
      "name": "floatBufferViews",
      "target": 34962
    }
  ],
  "buffers": [
    {
      "byteLength": 178848,
      "uri": "scene.bin"
    }
  ],
  "images": [
    {
      "uri": "textures/03_-_Default_baseColor.png"
    },
    {
      "uri": "textures/03_-_Default_emissive.png"
    },
    {
      "uri": "textures/01_-_Default_baseColor.jpeg"
    },
    {
      "uri": "textures/01_-_Default_normal.png"
    }
  ],
  "materials": [
    {
      "doubleSided": true,
      "emissiveFactor": [
        0,
        0,
        0
      ],
      "name": "01_-_Default",
      "normalTexture": {
        "index": 3,
        "scale": 1,
        "texCoord": 0
      },
      "pbrMetallicRoughness": {
        "baseColorFactor": [
          1,
          1,
          1,
          1
        ],
        "baseColorTexture": {
          "index": 2,
          "texCoord": 0
        },
        "metallicFactor": 0.88063016949999995,
        "roughnessFactor": 0.42846073959999997
      }
    },
    {
      "doubleSided": true,
      "emissiveFactor": [
        1,
        1,
        1
      ],
      "emissiveTexture": {
        "index": 1,
        "texCoord": 0
      },
      "name": "03_-_Default",
      "pbrMetallicRoughness": {
        "baseColorFactor": [
          1,
          1,
          1,
          1
        ],
        "baseColorTexture": {
          "index": 0,
          "texCoord": 0
        },
        "metallicFactor": 1,
        "roughnessFactor": 0.89297135959999996
      }
    },
    {
      "doubleSided": true,
      "emissiveFactor": [
        0,
        0,
        0
      ],
      "name": "07_-_Default",
      "pbrMetallicRoughness": {
        "baseColorFactor": [
          0.086274500000000004,
          0.129412,
          0.15294099999999999,
          1
        ],
        "metallicFactor": 1,
        "roughnessFactor": 0.89297135959999996
      }
    },
    {
      "doubleSided": true,
      "emissiveFactor": [
        0,
        0,
        0
      ],
      "name": "02_-_Default",
      "pbrMetallicRoughness": {
        "baseColorFactor": [
          0,
          0,
          0,
          1
        ],
        "metallicFactor": 0,
        "roughnessFactor": 0.89297135959999996
      }
    }
  ],
  "meshes": [
    {
      "name": "Karen_01 - Default_0",
      "primitives": [
        {
          "attributes": {
            "NORMAL": 1,
            "POSITION": 0,
            "TANGENT": 2,
            "TEXCOORD_0": 3
          },
          "indices": 4,
          "material": 0,
          "mode": 4
        }
      ]
    },
    {
      "name": "Karen_03 - Default_0",
      "primitives": [
        {
          "attributes": {
            "NORMAL": 6,
            "POSITION": 5,
            "TANGENT": 7,
            "TEXCOORD_0": 8
          },
          "indices": 9,
          "material": 1,
          "mode": 4
        }
      ]
    },
    {
      "name": "Karen_07 - Default_0",
      "primitives": [
        {
          "attributes": {
            "NORMAL": 11,
            "POSITION": 10,
            "TANGENT": 12,
            "TEXCOORD_0": 13
          },
          "indices": 14,
          "material": 2,
          "mode": 4
        }
      ]
    },
    {
      "name": "Karen_02 - Default_0",
      "primitives": [
        {
          "attributes": {
            "NORMAL": 16,
            "POSITION": 15,
            "TANGENT": 17,
            "TEXCOORD_0": 18
          },
          "indices": 19,
          "material": 3,
          "mode": 4
        }
      ]
    }
  ],
  "nodes": [
    {
      "children": [
        1
      ],
      "name": "RootNode (gltf orientation matrix)",
      "rotation": [
        -0.70710678118654746,
        -0,
        -0,
        0.70710678118654757
      ]
    },
    {
      "children": [
        2
      ],
      "name": "RootNode (model correction matrix)"
    },
    {
      "children": [
        3
      ],
      "matrix": [
        1,
        0,
        0,
        0,
        0,
        0,
        1,
        0,
        0,
        -1,
        0,
        0,
        0,
        0,
        0,
        1
      ],
      "name": "Karen.FBX"
    },
    {
      "children": [
        4
      ],
      "name": "RootNode"
    },
    {
      "children": [
        5,
        6,
        7,
        8
      ],
      "matrix": [
        1,
        0,
        0,
        0,
        0,
        2.2204460492503131e-16,
        -1,
        0,
        0,
        1,
        2.2204460492503131e-16,
        0,
        6.2545024093196844e-07,
        204.8656005859375,
        -0.90032386779785156,
        1
      ],
      "name": "Karen"
    },
    {
      "mesh": 0,
      "name": "Karen_01 - Default_0"
    },
    {
      "mesh": 1,
      "name": "Karen_03 - Default_0"
    },
    {
      "mesh": 2,
      "name": "Karen_07 - Default_0"
    },
    {
      "mesh": 3,
      "name": "Karen_02 - Default_0"
    }
  ],
  "samplers": [
    {
      "magFilter": 9729,
      "minFilter": 9987,
      "wrapS": 10497,
      "wrapT": 10497
    }
  ],
  "scene": 0,
  "scenes": [
    {
      "name": "OSG_Scene",
      "nodes": [
        0
      ]
    }
  ],
  "textures": [
    {
      "sampler": 0,
      "source": 0
    },
    {
      "sampler": 0,
      "source": 1
    },
    {
      "sampler": 0,
      "source": 2
    },
    {
      "sampler": 0,
      "source": 3
    }
  ]
}

